<svg xmlns="http://www.w3.org/2000/svg" width="52" height="52" version="1.1"><g><ellipse cx="26" cy="4" fill="#000" opacity="0" rx="4" ry="4" transform="rotate(0, 26, 4)"><animate attributeName="opacity" attributeType="CSS" begin="0s" dur="1.2s" from="1" repeatCount="indefinite" to="0"/></ellipse><ellipse cx="37" cy="6.947" fill="#000" opacity="0" rx="4" ry="4" transform="rotate(30, 37, 6.9474)"><animate attributeName="opacity" attributeType="CSS" begin="0.1s" dur="1.2s" from="1" repeatCount="indefinite" to="0"/></ellipse><ellipse cx="45.053" cy="15" fill="#000" opacity="0" rx="4" ry="4" transform="rotate(60, 45.0526, 15)"><animate attributeName="opacity" attributeType="CSS" begin="0.2s" dur="1.2s" from="1" repeatCount="indefinite" to="0"/></ellipse><ellipse cx="48" cy="26" fill="#000" opacity="0" rx="4" ry="4" transform="rotate(90, 48, 26)"><animate attributeName="opacity" attributeType="CSS" begin="0.3s" dur="1.2s" from="1" repeatCount="indefinite" to="0"/></ellipse><ellipse cx="45.053" cy="37" fill="#000" opacity="0" rx="4" ry="4" transform="rotate(120, 45.0526, 37)"><animate attributeName="opacity" attributeType="CSS" begin="0.4s" dur="1.2s" from="1" repeatCount="indefinite" to="0"/></ellipse><ellipse cx="37" cy="45.053" fill="#000" opacity="0" rx="4" ry="4" transform="rotate(150, 37, 45.0526)"><animate attributeName="opacity" attributeType="CSS" begin="0.5s" dur="1.2s" from="1" repeatCount="indefinite" to="0"/></ellipse><ellipse cx="26" cy="48" fill="#000" opacity="0" rx="4" ry="4" transform="rotate(180, 26, 48)"><animate attributeName="opacity" attributeType="CSS" begin="0.6s" dur="1.2s" from="1" repeatCount="indefinite" to="0"/></ellipse><ellipse cx="15" cy="45.053" fill="#000" opacity="0" rx="4" ry="4" transform="rotate(210, 15, 45.0526)"><animate attributeName="opacity" attributeType="CSS" begin="0.7s" dur="1.2s" from="1" repeatCount="indefinite" to="0"/></ellipse><ellipse cx="6.947" cy="37" fill="#000" opacity="0" rx="4" ry="4" transform="rotate(240, 6.9474, 37)"><animate attributeName="opacity" attributeType="CSS" begin="0.8s" dur="1.2s" from="1" repeatCount="indefinite" to="0"/></ellipse><ellipse cx="4" cy="26" fill="#000" opacity="0" rx="4" ry="4" transform="rotate(270, 4, 26)"><animate attributeName="opacity" attributeType="CSS" begin="0.9s" dur="1.2s" from="1" repeatCount="indefinite" to="0"/></ellipse><ellipse cx="6.947" cy="15" fill="#000" opacity="0" rx="4" ry="4" transform="rotate(300, 6.9474, 15)"><animate attributeName="opacity" attributeType="CSS" begin="1s" dur="1.2s" from="1" repeatCount="indefinite" to="0"/></ellipse><ellipse cx="15" cy="6.947" fill="#000" opacity="0" rx="4" ry="4" transform="rotate(330, 15, 6.9474)"><animate attributeName="opacity" attributeType="CSS" begin="1.1s" dur="1.2s" from="1" repeatCount="indefinite" to="0"/></ellipse></g></svg>